<?xml version="1.0" encoding="UTF-8"?>
<svg width="752pt" height="752pt" version="1.1" viewBox="0 0 752 752" xmlns="http://www.w3.org/2000/svg">
 <defs>
  <clipPath id="a">
   <path d="m201 146h332v466.79h-332z"/>
  </clipPath>
 </defs>
 <g clip-path="url(#a)">
  <path d="m532.42 462.83v-205.68c0-20.32-16.465-36.812-36.793-36.812-7.4727 0.003907-14.348 2.3086-20.145 6.1211v-23.398c0-20.332-16.484-36.801-36.812-36.812-8.0352 0.003906-15.461 2.6055-21.512 6.9844-4.3242-15.52-18.527-26.906-35.414-26.906-20.316 0.003907-36.785 16.477-36.797 36.816v6.3203c-5.7969-3.8164-12.672-6.1133-20.129-6.125-20.332 0.011719-36.809 16.477-36.816 36.809v115.84c-4.7266-6.6875-13.023-12.027-23.367-11.891-6.2344 0.011718-13.02 1.6953-20.562 5.1289-2.5195 1.1484-4.2148 3.5625-4.4375 6.332 0 0-0.019531 0.26172-0.14844 1.1797-0.89453 6.3867-6.5039 37.215-36.695 75.863-1.1875 1.5039-1.75 3.3984-1.5938 5.3203 0.042969 0.33203 3.9219 47.68 19.574 95.684 7.8633 24.016 18.605 48.254 33.871 67.031 15.113 18.684 35.551 32.164 61.145 32.164h0.15234c0.49609-0.011719 0.75781-0.011719 0.83203-0.011719l131.16 0.011719c46.668-0.011719 84.496-37.828 84.496-84.48v-65.383c0-0.035157 0.011718-0.070313 0.011718-0.10156zm-244.42-62.383v47.27l-6.1562-1.8242c-0.63672-0.63672-2.3984-2.8516-2.5195-10.27-0.023437-6.9062 1.9336-18.172 8.6758-35.176zm159.93 197.1s-131.79 0.011719-131.99 0.011719c-20.121-0.074219-35.922-10.062-49.469-26.559-20.184-24.668-33.117-63.5-40.496-95.969-3.7188-16.25-6.1133-30.898-7.5859-41.469-0.88281-6.3398-1.4219-11.16-1.7148-14.008 27.832-36.477 35.488-66.703 37.492-78.023 4.3047-1.6016 7.7812-2.1875 10.465-2.1797 5.6602 0.13281 8.3125 2.0508 11.199 5.8398 5.3398 7.1133 6.7148 21.863 6.5664 28.387 0 0.78516-0.011719 1.4414-0.019531 1.9531-13.918 28.809-18.258 47.336-18.301 60.094-0.37891 16.984 9.3086 23.816 11.641 24.328l17.75 5.3086c1.1836 0.34766 6.2344 0.71094 6.2344 0.71094s2.7109 0.074219 7.418 0.73047c14.453 1.8984 43.66 9.6406 54.184 33.258 1.2852 2.7891 4.0508 4.4414 6.9258 4.4414 1.0742 0 2.1523-0.22656 3.1836-0.71484 3.8242-1.7578 5.5-6.2812 3.7344-10.109-9.8594-21.258-29.121-31.82-45.078-37.141-11.648-3.8555-21.867-5.1133-26.809-5.5156l-0.007812-230.78c0.019531-11.906 9.6562-21.531 21.559-21.555 9.1875-0.019531 17.031 5.7656 20.133 13.883 0 0-0.003906 167.68-0.003906 167.76-0.015625 4.2188 3.3672 7.6445 7.5781 7.668 4.2109 0.027344 7.6523-3.3711 7.6719-7.5859l-0.003907-197.17c0.019532-11.918 9.6562-21.543 21.547-21.562 11.906 0.019532 21.539 9.6445 21.559 21.562v208.52c0 4.2031 3.4141 7.625 7.625 7.625 4.2148 0 7.6289-3.4219 7.6289-7.625h-0.011719v-196.27c3.1055-8.1211 10.926-13.898 20.121-13.887 11.914 0.019531 21.543 9.6562 21.562 21.559v196.56c0 4.2031 3.4102 7.6289 7.625 7.6289 4.2148 0 7.6367-3.4258 7.6367-7.6289h-0.011719l0.003907-150.16c3.1133-8.1016 10.945-13.875 20.145-13.867 11.902 0.019531 21.523 9.6523 21.543 21.559v271.17c-0.070313 38.23-30.992 69.16-69.23 69.234z"/>
 </g>
</svg>
