<?xml version="1.0" encoding="UTF-8"?>
<svg width="752pt" height="752pt" version="1.1" viewBox="0 0 752 752" xmlns="http://www.w3.org/2000/svg">
 <defs>
  <clipPath id="a">
   <path d="m201 245h332v367.79h-332z"/>
  </clipPath>
 </defs>
 <g clip-path="url(#a)">
  <path d="m531.73 328.32c-0.011719-20.344-16.484-36.824-36.812-36.824-7.6133 0.003906-14.625 2.3906-20.492 6.3398-2.3789-18.027-17.77-31.945-36.457-31.957-8.0469 0.003906-15.461 2.6094-21.523 6.9883-4.3242-15.512-18.527-26.906-35.418-26.906-17.574 0.011719-32.25 12.312-35.914 28.82-0.31641 1.8906-0.15625 1.4805-0.23047 2.3242-0.058594 1.957-0.10156 6.2969-0.12109 12.312-5.8984-4.0273-12.98-6.4531-20.668-6.457-17.586 0.019531-32.25 12.328-35.906 28.816l-0.17969 1.6484v22.594c-4.7031-6.6914-12.996-12.086-23.379-11.949-6.2344 0.015625-13.02 1.6953-20.559 5.125-2.5195 1.1562-4.2188 3.5664-4.4414 6.332 0 0-0.011718 0.27344-0.13672 1.1875-0.89844 6.3828-6.5195 37.223-36.703 75.871-1.1875 1.5156-1.7539 3.4102-1.5938 5.3242 0.042969 0.33203 3.9258 47.32 19.586 94.973 7.8633 23.848 18.617 47.91 33.875 66.559 15.141 18.598 35.629 31.973 61.277 31.926 0.49609-0.011719 0.75781-0.011719 0.84375-0.011719l1.9844 0.019532c4.9531 0.91406 10.062 1.4141 15.293 1.4062l113.89 0.015625c46.652-0.011719 84.48-37.828 84.48-84.504zm-56.938-7.5547c3.0742-8.1602 10.883-14.02 20.121-14.02v0.011718c11.902 0.019532 21.531 9.6523 21.555 21.57v49.816c0 1.3477-0.14062 2.6953-0.39062 4.0586v0.011719c-1.8984 9.9297-10.648 17.484-21.16 17.469-6.0938 0.003906-11.57-2.5352-15.484-6.6094-1.7148-1.7852-3.0938-3.8711-4.1211-6.1602-0.17969-0.41016-0.35156-0.82031-0.51562-1.2461-0.10938-0.30078-0.27734-0.58594-0.36719-0.89453v-0.011719c-0.69922-2.125-1.0625-4.3242-1.0742-6.6211l0.011719-49.816c-0.011719-1.3633 0.14844-2.7695 0.40625-4.1836 0.15234-0.80078 0.37891-1.6172 0.65625-2.4766 0.085937-0.30859 0.25391-0.58984 0.36328-0.89844zm-36.863-39.629h0.050781c11.902 0.019532 21.543 9.6602 21.562 21.562v98.211c-0.019531 7.4414-3.7852 13.988-9.5195 17.871-3.4297 2.3164-7.582 3.6797-12.043 3.6875-7.2773 0.011718-13.703-3.6211-17.605-9.1602-1.1094-1.5898-2.0039-3.3477-2.6641-5.2109-0.078125-0.19531-0.17188-0.37891-0.24609-0.58594-0.66797-2.082-1.0352-4.293-1.0469-6.5898l0.011719-98.215c0-2.3203 0.36719-4.5234 1.0469-6.6562 0.085937-0.22656 0.19531-0.44141 0.27734-0.66797 2.9961-8.2695 10.875-14.246 20.176-14.246zm-77.832-1.5469c0.019532-0.87891 0.03125-1.5664 0.042969-2.0117v-0.023438c2.3398-9.375 10.82-16.355 20.902-16.344 11.898 0.015625 21.527 9.6406 21.559 21.527 0 0.33203-0.24609 122.35-0.18359 124.23 0.019531 0.9375 0.050781 1.7031 0.09375 2.3555 0.042969 0.27734 0.050781 0.44922 0.0625 0.62109-0.011719 0.13281-0.042969 0.26172-0.050781 0.39844-0.042969 0.88281-0.15234 1.7461-0.30078 2.6094-0.0625 0.39844-0.085937 0.82031-0.17187 1.2148-0.21484 0.98438-0.54688 1.9062-0.90625 2.832-0.14063 0.375-0.23828 0.76953-0.39063 1.1406-0.39062 0.875-0.88281 1.6719-1.3906 2.4883-0.21484 0.35938-0.39063 0.75781-0.625 1.1016-0.51563 0.74219-1.1211 1.3984-1.7148 2.0625-0.32031 0.34375-0.58594 0.73828-0.92578 1.0625-0.60547 0.58594-1.293 1.082-1.9609 1.6055-0.41016 0.32031-0.77734 0.67969-1.2031 0.96875-0.6875 0.45312-1.4375 0.79297-2.1797 1.1719-0.5 0.25391-0.95312 0.54688-1.4453 0.76953-0.78906 0.33203-1.6523 0.53125-2.4961 0.76953-0.50391 0.13672-0.98438 0.34375-1.4961 0.45312-1.2852 0.25781-2.6211 0.37891-3.9766 0.39844-0.10156 0-0.18359 0.027343-0.28906 0.027343-0.80078-0.003906-1.5664-0.15234-2.3398-0.24609-10.602-1.1953-18.418-9.9766-18.5-21.305-0.019532-0.14453-0.13281-128.11-0.11328-129.88zm-56.836 34.762c2.4141-9.2617 10.824-16.148 20.844-16.129 9.1914-0.011719 17.016 5.7617 20.133 13.859v82.117c-0.16406 0.42969-0.33594 0.85938-0.53125 1.2773-0.20703 0.45703-0.40625 0.91406-0.64063 1.3594-0.27344 0.52734-0.59375 1.0039-0.91016 1.4961-0.28516 0.42969-0.54688 0.875-0.86328 1.2773-0.33594 0.45703-0.72266 0.875-1.0938 1.293-0.34766 0.39062-0.67969 0.79297-1.0508 1.168-0.40625 0.39453-0.84766 0.74609-1.2773 1.1172-0.39844 0.33203-0.78516 0.68359-1.2109 0.98828-0.46875 0.33203-0.97266 0.61719-1.4688 0.91406-0.4375 0.27344-0.86328 0.55078-1.3203 0.78906-0.53516 0.27734-1.1094 0.49609-1.6797 0.72266-0.45312 0.18359-0.89453 0.39844-1.3672 0.54688-0.65234 0.22266-1.3359 0.35156-2.0156 0.51172-0.41406 0.09375-0.82031 0.22656-1.2461 0.30078-1.0625 0.17188-2.1562 0.25391-3.2695 0.26172-0.058594 0-0.11719 0.015625-0.17188 0.015625-1.2734 0-2.5195-0.10938-3.7266-0.33203-0.36719-0.0625-0.71094-0.19531-1.0742-0.27734-0.82422-0.18359-1.6484-0.36719-2.4375-0.65234-0.45312-0.15625-0.87891-0.39453-1.3203-0.57812-0.64844-0.29297-1.3086-0.54688-1.9219-0.89453-0.47266-0.26953-0.89453-0.59375-1.3477-0.89453-0.53125-0.34766-1.082-0.67969-1.5781-1.0781-0.44141-0.35156-0.83594-0.76953-1.2539-1.168-0.4375-0.40625-0.89453-0.80469-1.3047-1.2461-0.39453-0.44141-0.72656-0.92578-1.082-1.3906-0.35938-0.46875-0.73828-0.92188-1.0586-1.4258-0.32031-0.51172-0.57812-1.0352-0.85938-1.5664-0.27344-0.52734-0.56641-1.0273-0.80859-1.5742-0.23047-0.54688-0.40625-1.1367-0.59375-1.7031-0.16797-0.50391-0.34766-1-0.48047-1.5195v-77.586zm-15.246 86.086v47.27l-6.1523-1.8203c-0.64063-0.63672-2.4062-2.875-2.5156-10.281-0.03125-6.8945 1.9258-18.16 8.668-35.168zm229.16 127.86c-0.0625 38.246-31.008 69.18-69.23 69.242h-113.88c-4.4727 0-8.8398-0.42188-13.086-1.2539l-1.3516-0.125-2.5312-0.03125c-0.17187-0.011719-0.33203-0.011719-0.48047-0.011719-0.28906 0-0.51953 0.011719-0.65625 0.011719-20.152-0.050782-35.957-9.9766-49.484-26.352-20.18-24.465-33.109-62.996-40.477-95.215-3.7148-16.105-6.1211-30.656-7.5859-41.117-0.87891-6.2812-1.4219-11.07-1.7109-13.887 27.824-36.492 35.488-66.723 37.492-78.047 4.3047-1.5938 7.7812-2.1875 10.461-2.1875 5.668 0.14844 8.3125 2.0742 11.199 5.8555 5.3398 7.1094 6.7266 21.867 6.5703 28.398 0 0.78906-0.003907 1.4375-0.019532 1.957-13.918 28.793-18.266 47.328-18.305 60.066-0.37891 16.992 9.3203 23.828 11.648 24.336l17.75 5.293c1.125 0.33203 16.68 0.70703 28.777 4.4922 13.797 4.3086 28.348 12.52 35.496 28.09 1.2773 2.7734 4.0469 4.4297 6.918 4.4297 1.0742 0 2.1523-0.22656 3.1836-0.71094 3.8242-1.7695 5.4883-6.2812 3.7305-10.113-9.7773-21.117-28.898-31.312-44.801-36.262-9.4023-2.9219-17.902-4.1289-23.531-4.6367v-33.52c0.50391 0.34375 1.0625 0.60547 1.582 0.92969 0.65625 0.41016 1.3203 0.80469 2.0117 1.1719 1.0625 0.56641 2.1719 1.0586 3.293 1.5195 0.6875 0.29297 1.3633 0.58984 2.0664 0.83203 1.2891 0.4375 2.625 0.76953 3.9727 1.0586 0.59375 0.13281 1.1719 0.32031 1.7852 0.42188 1.9961 0.33203 4.0312 0.53516 6.1211 0.54688 0.13672 0 0.27734-0.03125 0.42188-0.03125 1.8516-0.027344 3.6797-0.16406 5.457-0.45312 0.60156-0.10156 1.168-0.28906 1.7578-0.41016 1.2891-0.27734 2.5781-0.54688 3.8164-0.95312 0.67969-0.22266 1.3086-0.54297 1.9727-0.79297 1.0938-0.42188 2.1875-0.84375 3.2266-1.375 0.67969-0.34375 1.3086-0.76953 1.9688-1.1562 0.76953-0.45703 1.5664-0.84766 2.3008-1.3516 2.9609 14.254 14.18 25.469 28.43 28.473 0.09375 0.019531 0.1875 0.042969 0.28516 0.058594 1.0469 0.22266 2.1172 0.375 3.1992 0.50391 0.14063 0.015625 0.29297 0.046875 0.44141 0.070313 1.2031 0.10937 2.4297 0.19531 3.6719 0.19531 0.10547 0 0.19531-0.027344 0.30078-0.027344 1.4141-0.015625 2.793-0.10938 4.168-0.28516 0.48047-0.058594 0.94141-0.13281 1.4141-0.21484 1.0508-0.16797 2.0938-0.38281 3.1133-0.64062 0.42969-0.10938 0.86328-0.19922 1.2852-0.33203 1.3789-0.39062 2.7305-0.85156 4.0352-1.4102 0.16797-0.070313 0.32031-0.15234 0.48438-0.22656 1.1719-0.51562 2.293-1.0898 3.3945-1.7148 0.35938-0.20703 0.72656-0.42188 1.0664-0.63672 0.96484-0.58594 1.8672-1.2109 2.7617-1.8789 0.26953-0.19922 0.53516-0.39062 0.79297-0.58984 1.1367-0.89844 2.2109-1.8594 3.2266-2.875 0.12109-0.10938 0.21484-0.23828 0.33203-0.34766 0.89453-0.92187 1.7383-1.8906 2.5312-2.9102 0.21484-0.27344 0.42188-0.54688 0.625-0.83203 0.74219-0.98828 1.4258-2.0273 2.0664-3.0938 0.089844-0.13281 0.18359-0.25781 0.27344-0.39844 0.94531 0.88281 1.9414 1.6953 2.9609 2.4844 0.21484 0.14844 0.42969 0.29297 0.64844 0.44922 1.3359 0.96875 2.7422 1.8594 4.1953 2.625 0.10938 0.058594 0.19531 0.11719 0.29297 0.16797 1.5195 0.78906 3.1133 1.4414 4.7305 2.0273 0.30469 0.10938 0.59375 0.21484 0.90625 0.31641 1.6016 0.51953 3.2461 0.94141 4.9375 1.2305 0.32813 0.050781 0.64844 0.089843 0.97266 0.13672 1.7188 0.25781 3.4766 0.42187 5.2812 0.42969 0.042969 0 0.09375 0.011719 0.13672 0.011719 0.26953 0 0.51953-0.035156 0.76953-0.042969 0.91406-0.019531 1.832-0.058594 2.7266-0.13281 0.48438-0.050781 0.96484-0.125 1.4297-0.19531 0.67188-0.09375 1.3516-0.17188 2.0117-0.30859 0.50391-0.10156 1-0.21484 1.5117-0.33203 0.60156-0.14062 1.2148-0.29297 1.832-0.46875 0.50391-0.14844 0.98828-0.31641 1.4805-0.47266 0.58984-0.19531 1.1719-0.41016 1.7578-0.63672 0.47266-0.1875 0.9375-0.38281 1.3984-0.58594 0.58594-0.26172 1.1562-0.54687 1.7148-0.82422 0.42969-0.21484 0.875-0.4375 1.293-0.67188 0.58984-0.33203 1.1719-0.69531 1.7461-1.0586 0.35156-0.23047 0.74219-0.44922 1.0898-0.6875 0.82422-0.5625 1.6484-1.1797 2.4258-1.8164 0.24609-0.19922 0.48437-0.41406 0.73047-0.62109 0.64844-0.5625 1.293-1.1406 1.9102-1.7461 0.30859-0.30078 0.59375-0.63281 0.89453-0.95312 0.46484-0.48828 0.92578-0.98047 1.3594-1.4844 0.31641-0.36328 0.60547-0.75391 0.90625-1.125 0.37891-0.5 0.76953-0.99609 1.1367-1.5117 0.27734-0.40625 0.54687-0.82031 0.81641-1.2383 0.33594-0.53125 0.66797-1.0469 0.98438-1.5938 0.24609-0.42969 0.49609-0.86719 0.72266-1.3086 0.30078-0.55859 0.5625-1.1367 0.83203-1.7188 0.20703-0.4375 0.41016-0.87891 0.59375-1.332 0.25781-0.64062 0.49609-1.3008 0.72266-1.957 0.125-0.41016 0.30078-0.80859 0.42188-1.2305 0.33203-1.0508 0.60547-2.125 0.83203-3.2188 0.74219 0.51172 1.5508 0.90625 2.3164 1.3633 0.64844 0.37891 1.2734 0.79297 1.9414 1.1406 1.0195 0.52734 2.1094 0.9375 3.1992 1.3672 0.66797 0.26172 1.3047 0.56641 2 0.80078 1.2031 0.39453 2.4883 0.65625 3.7617 0.9375 0.60156 0.12109 1.1953 0.33203 1.8086 0.42188 1.9102 0.30859 3.8633 0.48438 5.8672 0.48438 1.9844 0 3.9141-0.18359 5.8086-0.49609 0.16406-0.015626 0.32812-0.03125 0.48047-0.058594 1.8086-0.31641 3.5586-0.77344 5.25-1.3359 0.22656-0.078125 0.45313-0.125 0.66797-0.21484 1.6484-0.56641 3.2188-1.2773 4.75-2.0742 0.23828-0.125 0.47266-0.24609 0.69922-0.36719 1.5-0.82031 2.9375-1.7461 4.293-2.7578 0.09375-0.074219 0.21484-0.125 0.30859-0.20703v120.87l-0.011718-0.003906z"/>
 </g>
</svg>
