<?xml version="1.0" encoding="UTF-8"?>
<svg width="752pt" height="752pt" version="1.1" viewBox="0 0 752 752" xmlns="http://www.w3.org/2000/svg">
 <defs>
  <clipPath id="a">
   <path d="m199 139.21h334v473.58h-334z"/>
  </clipPath>
 </defs>
 <g clip-path="url(#a)">
  <path d="m500.77 331.16c-1.7383-0.24219-3.457-0.375-5.1719-0.375-5.6836 0.003906-11.117 1.3633-16 3.7422 0-0.089844 0.019532-0.18359 0.019532-0.27344 0-18.086-13.297-33.809-31.684-36.406-1.7148-0.23828-3.4258-0.35938-5.1523-0.35938-5.8789 0.003907-11.461 1.4688-16.465 3.9883l15.691-120.41c0.23828-1.668 0.34375-3.3984 0.34375-5.0898 0-18.09-13.297-33.805-31.684-36.406-1.7109-0.23828-3.4258-0.36328-5.1445-0.36328-18.09 0-33.84 13.281-36.414 31.719l-26.309 174.96-45.793-167.79c-4.4062-16.43-19.266-27.277-35.543-27.277-3.1484 0-6.3555 0.40625-9.5508 1.2617-16.418 4.4297-27.27 19.27-27.258 35.539 0 3.1523 0.41016 6.3633 1.2695 9.5547l30.762 127.56c-3.125 0.54688-6.3867 1.4531-9.8203 2.7695-1.3594 0.51562-2.7109 1.0312-4.1133 1.6719-2.5195 1.1562-4.2148 3.5625-4.4375 6.332 0 0-0.019531 0.27344-0.14844 1.1953-0.89453 6.3789-6.5156 37.207-36.703 75.855v0.011718c-0.55859 0.71484-0.96484 1.5312-1.2305 2.3789-0.015625 0.0625-0.050781 0.11719-0.078125 0.18359-0.23828 0.82422-0.32031 1.6875-0.26953 2.5742 0 0.070313-0.027344 0.11719-0.019531 0.17969 0.042968 0.33203 3.9219 47.68 19.578 95.684 7.8633 24.02 18.613 48.262 33.871 67.047 15.117 18.699 35.566 32.176 61.191 32.176h0.11719c0.42188-0.011719 0.72656-0.011719 0.9375-0.011719l131.05 0.011719c46.668-0.011719 84.496-37.852 84.496-84.512l0.98047-155.58c0.23828-1.7461 0.35938-3.4688 0.34766-5.1562-0.011718-18.078-13.309-33.777-31.672-36.387zm-58.02-18.418h0.03125c0.98828 0 2.0039 0.070312 3.0312 0.22266 10.762 1.4883 18.547 10.762 18.547 21.301 0 1.0273-0.078125 2.0352-0.20703 3.0469l-2.1875 15.574-8.6484 61.527-1.0469 7.5078-1.7773 12.641c-0.019532 0.15625-0.085938 0.30078-0.10547 0.44922-1.7031 10.512-10.828 18.105-21.199 18.09-1.0156 0-2.0352-0.050781-3.0312-0.1875-9.4336-1.3203-16.555-8.5859-18.191-17.465-0.011719-0.070313-0.03125-0.13281-0.050781-0.20703-0.21484-1.2227-0.32031-2.4453-0.32031-3.7148 0-0.96484 0.0625-1.9375 0.20703-2.9531l4.6992-33.41 5.9297-42.207 3.0508-21.664c0.28906-2.0664 0.90625-4 1.7148-5.8086 0.085937-0.19922 0.13672-0.41406 0.23828-0.60547 3.5195-7.2812 11.055-12.137 19.316-12.137zm-162.21 133.12c-0.078125-0.085937-0.17969-0.18359-0.28516-0.32031-0.27734-0.35938-0.63672-0.94531-0.98828-1.8242-0.058594-0.15625-0.11719-0.29297-0.18359-0.46875-0.003906-0.011719-0.011719-0.042969-0.015625-0.050781-0.52734-1.5742-0.98438-3.957-1.0352-7.6133 0-0.42578 0.03125-0.92578 0.042969-1.3789 0.015625-0.55078 0.027344-1.1016 0.070313-1.6992 0.03125-0.5 0.10547-1.0469 0.15234-1.5781 0.070312-0.71094 0.14062-1.4141 0.24219-2.168 0.078125-0.56641 0.18359-1.2031 0.28516-1.8086 0.13281-0.80469 0.27734-1.6367 0.44922-2.5117 0.13281-0.66797 0.27734-1.3516 0.42969-2.0586 0.085937-0.35937 0.18359-0.76172 0.26953-1.1328l4.6289 25.793zm235.31 82.414c-0.054687 38.242-31.012 69.188-69.238 69.266h-130.95c-0.39062 0-0.76953 0.011719-1.043 0.011719-20.133-0.070313-35.941-10.062-49.48-26.559-20.184-24.668-33.113-63.508-40.492-95.98-3.7188-16.25-6.125-30.895-7.5859-41.469-0.88281-6.3516-1.4219-11.172-1.7148-14.008 0.48828-0.64844 0.92578-1.2695 1.4102-1.9102 1-1.332 1.9883-2.6719 2.9375-3.9883 0.66797-0.9375 1.3047-1.8477 1.9453-2.7617 0.91406-1.3203 1.8359-2.6328 2.7031-3.9297 0.58594-0.88281 1.1484-1.7578 1.7148-2.6328 0.84766-1.3008 1.6953-2.5977 2.4883-3.8789 0.51562-0.83203 1-1.6484 1.4961-2.4766 0.77344-1.2891 1.5586-2.5664 2.2852-3.8359 0.44922-0.77344 0.86719-1.5312 1.293-2.3008 0.71484-1.2852 1.4258-2.5508 2.0898-3.793 0.37891-0.72656 0.73047-1.4062 1.0938-2.1055 0.65234-1.2461 1.3047-2.5156 1.9062-3.7305 0.33203-0.64844 0.61719-1.2773 0.92578-1.9141 0.58984-1.2305 1.1836-2.4688 1.7266-3.6523 0.26172-0.57812 0.5-1.1406 0.76172-1.7148 0.53125-1.2109 1.0664-2.4141 1.5508-3.5781 0.21484-0.51563 0.40625-1 0.60937-1.5039 0.48047-1.1836 0.96484-2.3555 1.3945-3.4844 0.16797-0.4375 0.31641-0.85938 0.47266-1.2891 0.42969-1.1484 0.85938-2.293 1.2383-3.3828 0.12109-0.35938 0.23047-0.6875 0.35938-1.043 0.37891-1.1172 0.75781-2.2188 1.0898-3.2734 0.10156-0.30469 0.17188-0.57812 0.26953-0.87891 0.33203-1.0586 0.65234-2.1055 0.9375-3.0898 0.070313-0.23047 0.11719-0.4375 0.18359-0.66406 0.28516-1 0.55078-1.9883 0.78906-2.9102 0.058593-0.23047 0.10937-0.42969 0.15625-0.65625 0.22266-0.875 0.4375-1.7383 0.61719-2.5273 0.085937-0.35156 0.14062-0.65234 0.21484-0.98437 0.13281-0.60547 0.27344-1.2266 0.38281-1.7695 0.17188-0.86328 0.32031-1.6523 0.45312-2.3633 2.7578-1.0273 5.1445-1.6055 7.2305-1.9102 0.058594-0.003907 0.12109-0.011719 0.17969-0.019531 1.0938-0.15234 2.1367-0.25391 3.0469-0.25391 1.7852 0 3.2344 0.25391 4.4922 0.65234 1.957 0.64844 3.5312 1.668 4.957 3.125 0.60156 0.60938 1.1797 1.2773 1.7422 2.0586 1.5352 2.0469 2.7148 4.7578 3.6562 7.6875 2.3242 7.2734 3.0352 16.074 2.9258 20.723 0 0.77734-0.011719 1.4258-0.019531 1.9375v0.019531c-0.40625 0.83594-0.74219 1.6016-1.125 2.4102-0.82031 1.7422-1.6484 3.4922-2.4102 5.1523-1.5781 3.4922-2.9609 6.7656-4.2578 9.9414-7.7734 19.133-10.461 32.641-10.488 42.582-0.035156 1.7695 0.089844 3.3672 0.24609 4.9219 1.168 11.504 7.1836 17.25 10.172 18.918 0.48828 0.26953 0.89063 0.42187 1.1836 0.49609l0.24609 0.085938 0.4375 0.15625 14.543 4.3008 2.5312 0.75391c0.67969 0.21094 1.375 0.30078 2.0664 0.30859 0.035156 0 0.078125 0.011719 0.10938 0.011719 0.13672 0 0.26172-0.050781 0.39844-0.0625 0.26953-0.015625 0.53516-0.035157 0.79297-0.078125 2.3359 0.050781 13.297 0.52734 25.426 4.3086 13.781 4.3086 28.34 12.52 35.488 28.078 1.2852 2.8008 4.0469 4.4531 6.9336 4.4531 1.0625 0 2.1406-0.22656 3.1797-0.71094 3.8359-1.7695 5.4922-6.2891 3.7305-10.113-9.7773-21.109-28.91-31.324-44.797-36.262-10.102-3.1367-19.184-4.293-24.762-4.7344l-4.6523-25.922-2.0273-11.293-4.7344-18.961c0.6875-1.6094 1.3359-3.168 2.1172-4.8789 1.2031-2.6406 2.4766-5.3789 3.8672-8.2227l0.015624-0.042969c0.058594-0.10937 0.11719-0.23047 0.17188-0.35156 0.44141-0.92188 0.68359-1.8359 0.75781-2.8477 0.003906-0.10938 0.0625-1.0312 0.089844-2.5898 0.011718-0.51562 0.015625-1.1055 0.015625-1.7539-0.027344-1.4727-0.085938-3.3242-0.18359-5.332-0.046875-0.91406-0.10547-1.8242-0.17969-2.8242-0.085938-1.0586-0.17969-2.1562-0.30859-3.293-0.89062-7.9609-3.082-17.59-8.707-25.777-1.0156-1.4414-2.2305-2.8047-3.543-4.1055-2.9219-2.9062-6.5195-5.3477-10.859-6.7461l-31.848-132.1c-0.54687-2.0781-0.79297-3.9375-0.79297-5.7891 0.011718-9.5039 6.3633-18.25 15.992-20.812 1.8633-0.51562 3.7266-0.74219 5.5742-0.74219 9.5156 0 18.258 6.3516 20.828 15.996l50.059 183.42 3.4258 12.559c0.21484 0.78906 0.57422 1.4883 1 2.1406 1.6523 2.5195 4.6797 3.8789 7.75 3.3086 0.10938 0.019531 0.21094 0.070312 0.32031 0.089843 4.168 0.61719 8.0469-2.2539 8.6758-6.4102l0.67969-4.5352 2.6836-17.863 27.305-181.66c1.5-10.855 10.777-18.645 21.332-18.645 0.98828 0 1.9961 0.074218 3.0195 0.21094 10.77 1.5117 18.555 10.77 18.555 21.316-0.011718 1.0195-0.074218 2.043-0.21484 3.043l-34.191 247.4c-0.23828 1.6953-0.35156 3.4062-0.34375 5.0938-0.011718 2.125 0.17188 4.2578 0.53516 6.3242 2.6328 15.34 14.918 27.867 31.145 30.156 1.7305 0.23828 3.4688 0.35156 5.1523 0.35156 15.602 0 29.414-9.9297 34.594-24.449 5.3164 4.9141 12.078 8.3633 19.785 9.4492 1.668 0.25391 3.332 0.35156 4.9375 0.35156h0.22656c10.625 0 20.328-4.6562 27.121-12.156v86.707zm1.1211-157.68-1.2852 9.1367-0.73047 5.2031-3.5664 25.352-1.3594 9.6602c-0.17187 1.3359-0.50391 2.6406-0.95312 3.957-2.9414 8.6406-11.203 14.605-20.352 14.586-1.0273 0-2.043-0.058593-3.043-0.20703-9.1562-1.2773-16.09-8.1836-17.977-16.691-0.050782-0.24609-0.14062-0.47266-0.18359-0.71484-0.019531-0.085938-0.050781-0.14844-0.0625-0.22656-0.23828-1.2617-0.33203-2.5195-0.33203-3.7852 0-0.94141 0.0625-1.9062 0.20703-2.9258l4.4531-31.625 2.4961-17.742c0.18359-1.3672 0.52734-2.7422 0.98828-4.043 0.26953-0.80078 0.60547-1.582 0.98047-2.3555 0.15234-0.30469 0.33594-0.56641 0.51172-0.85938 3.6875-6.8086 10.855-11.293 18.77-11.293h0.070312c0.98828 0 2.0039 0.0625 3.0312 0.21094h0.011719c10.75 1.5039 18.543 10.766 18.543 21.301-0.015625 1.0352-0.089844 2.0508-0.21875 3.0625z"/>
 </g>
</svg>
